<?xml version="1.0" encoding="utf-8"?>
<!-- Generator: Adobe Illustrator 26.0.3, SVG Export Plug-In . SVG Version: 6.00 Build 0)  -->
<svg version="1.1" id="图层_1" xmlns="http://www.w3.org/2000/svg" xmlns:xlink="http://www.w3.org/1999/xlink" x="0px" y="0px"
	 viewBox="0 0 1646.4 275.7" style="enable-background:new 0 0 1646.4 275.7;" xml:space="preserve">
<style type="text/css">
	.st0{display:none;}
	.st1{fill:#FFFFFF;}
	.st2{fill:#BCBCBC;}
	.st3{fill:none;}
	.st4{font-family:'SIL-Hei-Med-Jian';}
	.st5{font-size:300px;}
</style>
<g id="H39NIJ.tif" class="st0">
	
		<image style="display:inline;overflow:visible;enable-background:new    ;" width="292" height="291" id="Layer_0_00000085971695044508486220000014998393522078483605_" xlink:href="../../../../../personal-portfolio/src/assets/img/433C97F48DD68582.png"  transform="matrix(0.9966 0 0 0.9966 152.4187 0.2296)">
	</image>
</g>
<g>
	<polygon class="st1" points="25.4,78.4 137.1,13.9 248.7,78.4 248.7,207.4 154.5,261.8 119.3,261.6 25.4,207.4 	"/>
	<polygon class="st1" points="214,187 214,98.7 137.6,54.6 61.1,98.7 61.1,187 137.6,231.2 	"/>
	<polygon points="178.3,166.7 178.3,119 137.1,95.2 95.8,119 95.8,166.7 137.1,190.5 	"/>
	<polygon class="st2" points="137.6,142.9 95.8,119 137.1,95.2 178.3,119 	"/>
	<polygon points="25.4,78.4 61.1,57.8 61.1,187 119.3,220.6 119.3,261.6 25.4,207.4 	"/>
	<polygon points="154.5,221.4 214,187 214,98.7 137.6,54.6 95.8,78.7 95.8,37.7 137.1,13.9 248.7,78.4 248.7,207.4 154.5,261.8 	"/>
</g>
<rect x="287.4" y="-12.9" class="st3" width="1371" height="414.9"/>
<text transform="matrix(1 0 0 1 287.4131 239.017)" class="st1 st4 st5">BOBBY</text>
<text transform="matrix(1 0 0 1 287.4131 239.017)" class="st4 st5">BOBBY</text>
</svg>
